<svg xmlns="http://www.w3.org/2000/svg" viewBox="0 0 64 64" width="64" height="64" fill="none">
  <!-- Sheet background -->
  <rect x="8" y="4" width="48" height="56" rx="4" fill="#f0fdf4" stroke="#10b981" stroke-width="2"/>
  <!-- Grid lines horizontal -->
  <line x1="8" y1="18" x2="56" y2="18" stroke="#10b981" stroke-width="1.5" opacity="0.6"/>
  <line x1="8" y1="30" x2="56" y2="30" stroke="#10b981" stroke-width="1.5" opacity="0.6"/>
  <line x1="8" y1="42" x2="56" y2="42" stroke="#10b981" stroke-width="1.5" opacity="0.6"/>
  <!-- Grid lines vertical -->
  <line x1="24" y1="4" x2="24" y2="60" stroke="#10b981" stroke-width="1.5" opacity="0.6"/>
  <line x1="40" y1="4" x2="40" y2="60" stroke="#10b981" stroke-width="1.5" opacity="0.6"/>
  <!-- Header row fill -->
  <rect x="8" y="4" width="48" height="14" rx="4" fill="#10b981" opacity="0.2"/>
  <!-- AI sparkle -->
  <g transform="translate(48, 8)">
    <path d="M8 0 L9.5 5.5 L15 7 L9.5 8.5 L8 14 L6.5 8.5 L1 7 L6.5 5.5 Z" fill="#10b981" stroke="#059669" stroke-width="0.5"/>
  </g>
  <g transform="translate(44, 2)">
    <path d="M4 0 L4.8 2.8 L7.5 3.5 L4.8 4.2 L4 7 L3.2 4.2 L0.5 3.5 L3.2 2.8 Z" fill="#10b981" opacity="0.6"/>
  </g>
</svg>
